<?xml version="1.0" encoding="utf-8"?><svg xmlns="http://www.w3.org/2000/svg" xmlns:xlink="http://www.w3.org/1999/xlink"><symbol viewBox="0 0 408 408" id="bank" xmlns="http://www.w3.org/2000/svg"><path d="M383.2 91.15L206 26.35c-1.6-.4-2.8-.4-4.4 0L25.2 91.15c-2.8 1.2-4.8 4-4 7.2.4 2.8 2.8 5.2 6 5.2h353.6c3.2 0 5.6-2.4 6.4-5.2.4-3.2-1.2-6-4-7.2zm-319.6-.8L204 39.15l140.4 51.2H63.6zm338 252.4h-18v-20c0-3.6-2.8-6.4-6.4-6.4h-10.4v-19.6c0-3.6-2.8-6.4-6.4-6.4h-4v-155.2h16c3.6 0 6.4-2.8 6.4-6.4 0-3.6-2.8-6.4-6.4-6.4H35.6c-3.6 0-6.4 2.8-6.4 6.4 0 3.6 2.8 6.4 6.4 6.4h16v155.2h-4c-3.6 0-6.4 2.8-6.4 6.4v19.6H30.8c-3.6 0-6.4 2.8-6.4 6.4v20h-18c-3.6 0-6.4 2.8-6.4 6.4v26.4c0 3.6 2.8 6.4 6.4 6.4h395.2c3.6 0 6.4-2.8 6.4-6.4v-26.4c0-3.6-2.8-6.4-6.4-6.4zm-77.2-207.6h18.8v155.2h-18.8v-155.2zm-10.4 168h40v13.2h-40v-13.2zm-87.6-168h85.2v155.2h-4c-3.6 0-6.4 2.8-6.4 6.4v19.6h-64.4v-19.6c0-3.6-2.8-6.4-6.4-6.4h-4v-155.2zm-31.6 0h18.8v155.2h-18.8v-155.2zm-10.8 168h40v13.2h-40v-13.2zm-87.6-168h85.2v155.2h-4c-3.6 0-6.4 2.8-6.4 6.4v19.6h-64.4v-19.6c0-3.6-2.8-6.4-6.4-6.4h-4v-155.2zm-31.6 0h18.8v155.2H64.8v-155.2zm-10.8 168h40v13.2H54v-13.2zm-16.8 26h333.6v13.6H37.2v-13.6zm358 40H12.8v-13.6h382.4v13.6z"/></symbol><symbol viewBox="0 0 424.038 424.038" id="bars" xmlns="http://www.w3.org/2000/svg"><path d="M352.4 34.019c-32.4 0-58 26-58 58.4s26 58 58 58 58.4-26 58.4-58.4-26-58-58.4-58zm0 103.6c-25.2 0-45.6-20.4-45.6-45.6s20.8-45.2 45.6-45.2c25.2 0 45.6 20.4 45.6 45.6 0 25.2-20.4 45.2-45.6 45.2z"/><path d="M370.8 101.219c-.4-1.2-.4-2-1.2-3.2-.4-.8-.8-2-1.6-2.8-.8-.8-1.2-1.6-2-2.4s-1.6-1.6-2.8-2c-.8-.8-2-1.2-2.8-1.6-1.2-.4-2-1.2-3.2-1.6-1.2-.4-2.4-.8-3.2-1.2-.4 0-1.2-.4-1.6-.8-.4-.4-1.2-.4-1.6-.8-.4-.4-1.2-.4-1.6-.8l-1.2-1.2c-.4-.4-.8-.8-.8-1.6-.4-.4-.4-1.2-.4-1.6v-2c0-.4.4-1.2.4-1.6.4-.4.4-1.2.8-1.6l1.2-1.2c.4-.4 1.2-.8 2-.8.8-.4 1.2-.4 2-.4h2.4c.8 0 1.2 0 2 .4.8 0 1.6.4 2 .4.4 0 1.2.4 1.6.4.8 0 1.2.4 1.6.4l2 .8.4-2.4.8-6.4v-1.6l-1.6-.4c-.4 0-1.2-.4-1.6-.4-.4 0-.8-.4-1.6-.4-.4 0-1.2-.4-2-.4s-1.2-.4-2-.4h-.4v-7.6h-9.6v8h-.4c-1.2.4-2.4.8-3.6 1.6-1.2.4-2 1.2-2.8 2s-1.6 1.6-2.4 2.8c-.8.8-1.2 2-1.6 3.2l-1.2 3.6c-.4 1.2-.4 2.8-.4 4s0 2 .4 3.2c.4 1.2.4 2 1.2 3.2.4.8 1.2 2 1.6 2.8.8.8 1.2 1.6 2 2.4.8.8 1.6 1.6 2.8 2 .8.8 2 1.2 2.8 1.6 1.2.4 2.4 1.2 3.2 1.6 1.2.4 2.4.8 3.2 1.2.4 0 1.2.4 1.6.8.4.4 1.2.4 1.6.8.4.4.8.8 1.2.8l1.2 1.2c.4.4.4.8.8 1.6 0 .4.4 1.2.4 2v2c0 .4-.4 1.2-.8 1.6l-1.2 1.2c-.4.4-.8.8-1.6 1.2-.4.4-1.2.4-1.6.8-.4 0-1.2.4-2 .4h-5.2c-.8 0-1.6-.4-2-.4-.8 0-1.6-.4-2.4-.8-.8-.4-1.6-.4-2.4-.8-.4 0-.8-.4-1.2-.4-.4 0-.8-.4-1.2-.4l-2.4-1.2-.4 2.8-.8 7.2v1.2l1.2.4c1.6-.4 2.4 0 3.6.4.8.4 2 .8 2.8.8.8.4 2 .4 3.2.8 1.2.4 2 .4 3.2.4h.8v8h9.6v-8.4h.4c1.2-.4 2.4-.8 3.6-1.6 1.2-.4 2-1.2 3.2-2 .8-.8 1.6-1.6 2.4-2.8.8-.8 1.2-2 2-3.2l1.2-3.6c.4-1.2.4-2.4.4-4 0-1.2 0-2-.4-3.2zm-46.4 56.8c-2-2.8-6.4-3.2-9.2-1.2l-64.8 51.6-83.6-34.8c-2-.8-4.4-.4-6 .8l-89.6 64c-2.8 2-3.6 6-1.6 8.8 1.2 2 3.2 2.8 5.2 2.8 1.2 0 2.4-.4 3.6-1.2l86.8-62 84 34.8c2 .8 4.8.4 6.4-.8l67.6-53.6c2.8-2 3.2-6.4 1.2-9.2z"/><path d="M418 377.219h-29.6v-185.2c0-3.6-2.8-6.4-6.4-6.4h-58.8c-3.6 0-6.4 2.8-6.4 6.4v185.2h-21.6v-121.2c0-3.6-2.8-6.4-6.4-6.4h-59.2c-3.6 0-6.4 2.8-6.4 6.4v121.2h-21.6v-130.8c0-3.6-2.8-6.4-6.4-6.4h-58.8c-3.6 0-6.4 2.8-6.4 6.4v130.8h-21.6v-93.2c0-3.6-2.8-6.4-6.4-6.4H42.8c-3.6 0-6.4 2.8-6.4 6.4v93.2h-30c-3.6 0-6.4 2.8-6.4 6.4 0 3.6 2.8 6.4 6.4 6.4h411.2c3.6 0 6.4-2.8 6.4-6.4.4-3.6-2.4-6.4-6-6.4zm-322.8 0h-46v-86.8h46v86.8zm93.6 0h-46v-124.4h46v124.4zm93.2 0h-46v-114.8h46v114.8zm93.6 0h-46v-178.8h46v178.8z"/></symbol><symbol viewBox="0 0 328.904 328.904" id="chart" xmlns="http://www.w3.org/2000/svg"><path d="M287.2 170.702c-52.4.8-116.8 3.6-135.2 4.4l-34-130.8c-.8-3.6-4.4-5.6-8-4.4-64.8 16.4-110 74.8-110 141.6 0 80.8 66 146.8 146.8 146.8s146.8-66 146.8-146.8v-4.8c0-3.2-3.2-6-6.4-6zm-140.4 144.8c-74 0-134-60-134-134 0-58.8 38.4-110.8 94.4-128l33.6 129.6c.8 2.8 3.6 4.8 6.4 4.8.8 0 73.2-3.6 133.6-4.4-.8 73.2-60.8 132-134 132z"/><path d="M328.8 150.702c-1.2-64.4-46.4-121.2-109.2-137.2-3.6-.8-6.8 1.2-8 4.4l-35.2 136c-.4 2 0 4 1.2 5.6 1.2 1.6 3.2 2.4 4.8 2.4h.4c.8 0 78.8-3.6 140-4.4 1.6 0 3.2-.8 4.4-2 1.2-1.2 2-2.8 1.6-4.8zm-137.6-2l31.2-121.2c52 16 89.6 62.8 94 117.2-48.4.8-104 3.2-125.2 4zm-36.4 0c.8 2.8 3.2 4.8 6.4 4.8s5.6-2 6.4-4.8l35.2-136c.4-1.6 0-3.2-.8-4.8-.8-1.6-2.4-2.4-4-2.8-24-6-49.6-6-73.6 0-1.6.4-3.2 1.6-4 2.8-.8 1.6-1.2 3.2-.8 4.8l35.2 136zm33.2-132.8l-27.2 105.6-27.2-105.6c17.6-4 36.8-4 54.4 0zm-82.8 168.8c-.4-1.2-1.2-2.4-2-3.2-.8-1.2-1.6-2-2.8-2.8-1.2-.8-2-2-3.2-2.8l-3.6-2.4c-1.2-.8-2.8-1.6-4-2-1.6-.8-2.8-1.2-4.4-1.6-.8-.4-1.6-.4-2-.8-.8-.4-1.6-.8-2-.8-.8-.4-1.2-.8-2-1.2-.4-.4-1.2-.8-1.6-1.6-.4-.4-.8-1.2-1.2-2-.4-.8-.4-1.6-.4-2.4v-2.4c0-.8.4-1.6.8-2 .4-.8.8-1.2 1.2-2 .4-.8 1.2-1.2 1.6-1.6l2.4-1.2c.8-.4 1.6-.4 2.8-.4H88c.8 0 1.6 0 2.8.4.8 0 2 .4 2.8.4s1.2.4 2 .4c.8.4 1.6.4 2 .4l2.8.8.4-2.8 1.2-8.4.4-2-3.2-.4c-.8-.4-1.2-.4-2-.4-.4 0-1.2-.4-2-.4s-1.6-.4-2.4-.4-1.6-.4-2.4-.4h-.8v-10.4h-12v10.4h-.8c-1.6.4-3.2 1.2-4.4 2-1.2.8-2.8 1.6-4 2.8-1.2 1.2-2.4 2.4-3.2 3.6s-1.6 2.8-2.4 4c-.8 1.6-1.2 3.2-1.6 4.8-.4 1.6-.4 3.2-.4 5.2 0 1.2 0 2.8.4 4 .4 1.2.8 2.8 1.2 4 .4 1.2 1.2 2.4 2 3.2.8 1.2 1.6 2 2.8 2.8s2.4 1.6 3.2 2.4c1.2.8 2.4 1.6 4 2.4 1.6.8 2.8 1.2 4.4 2 1.6.8 2.8 1.2 4.4 1.6.8.4 1.6.4 2 .8.8.4 1.2.8 2 1.2s1.2.8 1.6 1.2c.4.4.8.8 1.2 1.6.4.4.8 1.2.8 2 .4.8.4 1.6.4 2.4v2.4c0 .8-.4 1.6-.8 2-.4.8-.8 1.2-1.6 1.6-.4.4-1.2.8-2 1.2s-1.2.8-2 .8c-.8.4-1.6.4-2.4.4h-4c-.8 0-2 0-2.8-.4-.8 0-2-.4-2.8-.4-1.2-.4-2.4-.4-3.2-.8-1.2-.4-2.4-.8-3.2-1.2-.4 0-.8-.4-1.2-.4-.4-.4-.8-.4-1.2-.8l-3.2-1.6-.4 3.2v9.6l-.4 1.6 1.6.8c1.2.4 2.4 1.2 3.6 1.6l3.6 1.2c1.2.4 2.4.8 4 .8 1.2.4 2.8.4 4 .8h.8v10h12v-10.4h.8c1.6-.4 3.2-1.2 4.8-2 1.6-.8 2.8-1.6 4-2.8s2.4-2.4 3.2-3.6 1.6-2.8 2.4-4c.8-1.6 1.2-3.2 1.6-4.8.4-1.6.4-3.2.4-4.8 0-1.6 0-2.8-.4-4-.4-1.2-.8-2.8-1.2-4z"/></symbol><symbol viewBox="0 0 296.4 296.4" id="coins" xmlns="http://www.w3.org/2000/svg"><path d="M152.6 146c40.4 0 72.8-32.8 72.8-72.8S192.6 0 152.6 0 79.8 32.8 79.8 72.8s32.4 73.2 72.8 73.2zm0-133.2c33.2 0 60 26.8 60 60s-26.8 60-60 60-60-26.8-60-60 26.8-60 60-60zm81.6 166.8H229V160c0-3.6-2.8-6.4-6.4-6.4H91c-3.6 0-6.4 2.8-6.4 6.4v26c0 3.6 2.8 6.4 6.4 6.4h5.2v13.2h-10c-3.6 0-6.4 2.8-6.4 6.4v19.6H62.2c-3.6 0-6.4 2.8-6.4 6.4v26c0 3.6 2.8 6.4 6.4 6.4h7.2V290c0 3.6 2.8 6.4 6.4 6.4h131.6c3.6 0 6.4-2.8 6.4-6.4v-26c0-3.6-2.8-6.4-6.4-6.4h-7.2v-13.2h17.6c3.6 0 6.4-2.8 6.4-6.4v-19.6h10c3.6 0 6.4-2.8 6.4-6.4v-26c0-3.2-2.8-6.4-6.4-6.4zM97.4 166.8h118.8V180H97.4v-13.2zm-28.8 90.4V244h118.8v13.2H68.6zM201 270v13.2H82.2V270H201zm10.4-38.4H92.6v-13.2h118.8v13.2zm16.4-26H109v-13.2h118.8v13.2z"/><path d="M134.2 108.8l3.6 1.2c1.2.4 2.4.8 4 .8 1.2.4 2.8.4 4 .8h.8v10h12v-10.4h.8c1.6-.4 3.2-1.2 4.8-2s2.8-1.6 4-2.8c1.2-1.2 2.4-2.4 3.2-3.6.8-1.2 1.6-2.8 2.4-4 .8-1.6 1.2-3.2 1.6-4.8.4-1.6.4-3.2.4-4.8 0-1.2 0-2.8-.4-4-.4-1.2-.8-2.8-1.2-4-.4-1.2-1.2-2.4-2-3.2-.8-1.2-1.6-2-2.8-2.8-1.2-.8-2-2-3.2-2.8l-3.6-2.4c-1.2-.8-2.8-1.6-4-2-1.6-.8-2.8-1.2-4.4-1.6-.8-.4-1.6-.4-2.4-.8-.8-.4-1.6-.8-2-.8-.8-.4-1.2-.8-2-1.2-.4-.4-1.2-.8-1.6-1.6-.4-.4-.8-1.2-1.2-2-.4-.8-.4-1.6-.4-2.4v-2.4c0-.8.4-1.6.8-2 .4-.8.8-1.2 1.2-2 .4-.8 1.2-1.2 1.6-1.6l2.4-1.2c.8-.4 1.6-.4 2.8-.4h3.2c.8 0 1.6 0 2.8.4.8 0 2 .4 2.8.4s1.2.4 2 .4c.8.4 1.6.4 2 .4l2.8.8.4-2.8 1.2-8.4.4-2-2-.8c-.8-.4-1.2-.4-2-.4-.4 0-1.2-.4-2-.4s-1.6-.4-2.4-.4-1.6-.4-2.4-.4h-.8v-9.6h-12.8v10.4h-.8c-1.6.4-3.2 1.2-4.4 2-1.2.8-2.8 1.6-4 2.8-1.2 1.2-2.4 2.4-3.2 3.6s-1.6 2.8-2.4 4c-.8 1.6-1.2 3.2-1.6 4.8-.4 1.6-.4 3.2-.4 5.2 0 1.2 0 2.8.4 4 .4 1.2.8 2.8 1.2 4 .4 1.2 1.2 2.4 2 3.2.8 1.2 1.6 2 2.8 2.8s2.4 1.6 3.2 2.4c1.2.8 2.4 1.6 4 2.4 1.6.8 2.8 1.2 4.4 2 1.6.8 2.8 1.2 4.4 1.6.8.4 1.6.4 2 .8.8.4 1.2.8 2 1.2.8.4 1.2.8 1.6 1.2.4.4.8.8 1.2 1.6.4.4.8 1.2.8 2 .4.8.4 1.6.4 2.4V92c0 .8-.4 1.6-.8 2-.4.8-.8 1.2-1.6 1.6-.4.4-1.2.8-2 1.2-.8.4-1.2.8-2 .8-.8.4-1.6.4-2.4.4h-4c-.8 0-2 0-2.8-.4-.8 0-2-.4-2.8-.4-1.2-.4-2.4-.4-3.2-.8-1.2-.4-2.4-.8-3.2-1.2-.4 0-.8-.4-1.2-.4-.4-.4-.8-.4-1.2-.8l-3.2-1.6-.4 3.2-1.2 9.2-.4 1.6 1.6.8c2.4.4 3.6 1.2 4.8 1.6z"/></symbol><symbol viewBox="0 0 16 16" id="fb" xmlns="http://www.w3.org/2000/svg"><path d="M7.2 16V8.5h-2V5.8h2V3.5C7.2 1.7 8.4 0 11.1 0c1.1 0 1.9.1 1.9.1l-.1 2.5h-1.7c-1 0-1.1.4-1.1 1.2v2H13l-.1 2.7h-2.8V16H7.2z"/></symbol><symbol viewBox="0 0 491.858 491.858" id="google" xmlns="http://www.w3.org/2000/svg"><path d="M377.472 224.957H201.319v58.718H308.79c-16.032 51.048-63.714 88.077-120.055 88.077-69.492 0-125.823-56.335-125.823-125.824 0-69.492 56.333-125.823 125.823-125.823 34.994 0 66.645 14.289 89.452 37.346l42.622-46.328c-34.04-33.355-80.65-53.929-132.074-53.929C84.5 57.193 0 141.693 0 245.928s84.5 188.737 188.736 188.737c91.307 0 171.248-64.844 188.737-150.989v-58.718l-.001-.001zm114.386-.1h-36.031v-36.031h-30.886v36.031H388.91v30.883h36.031v36.032h30.886V255.74h36.031z"/></symbol><symbol viewBox="0 0 184.591 184.591" id="insta" xmlns="http://www.w3.org/2000/svg"><path d="M105.809 84.807c-2.568-5.338-10.827-11.555-16.133-7.163-7.664.037-12.159 8.901-11.73 16.308.66 11.389 13.132 15.92 22.775 11.982 8.662-3.538 8.574-13.888 5.088-21.127zm-11.721 18.594a13.599 13.599 0 0 0 3.652-1.098c.134.112.276.206.419.304a12.09 12.09 0 0 1-4.071.794zm36.855-42.842c.061-1.873-.047-3.75-.177-5.508-.083-1.125-.876-2.062-2.064-2.065-2.293-.007-9.679-.901-12.199 1.216-.704-.773-2.216-.5-2.305.85-.349 5.266-.586 10.528-.624 15.806-.006.825.596 1.715 1.436 1.887 1.065.217 2.173.388 3.285.478.075.124.166.241.278.346 2.582 2.454 7.653.581 10.665.112.657-.103 1.256-.791 1.407-1.409.929-3.759 1.145-7.911.298-11.713z"/><path d="M133.404 88.419c-.141-1.166-1.04-1.816-1.968-1.945 1.185-1.242.094-3.87-2.029-3.365-2.976.707-6.025.721-9.024.126-1.104-.219-1.882.501-2.098 1.337-.364.441-.545 1.04-.356 1.763 4.757 18.198-4.975 32.997-24.219 33.354-18.07.336-29.635-13.456-25.96-30.999.128-.61.05-1.425-.488-1.846l-.157-.144c.384-.669.409-1.548-.254-2.286-.06-.066-.131-.116-.196-.175.14-.331.249-.685.286-1.088.073-.793-.72-1.462-1.461-1.461-.789.001-1.434.238-2.067.545a2.131 2.131 0 0 0-.568-.162c-3.916-.511-7.515.616-11.415.91-1.041.078-1.931.816-1.925 1.925.036 5.854.062 11.708.112 17.562-.01.386.106.686.266.943.174 8.391 2.717 17.209 6.218 22.756 7.268 11.516 24.553 10.595 36.452 11.268 10.166.574 31.934 3.346 38.096-7.559 6.266-11.087 4.203-29.357 2.755-41.459zm-11.181 32.784c-.031-.029-.059-.066-.093-.095a72.594 72.594 0 0 0 1.366-5.853c.099-.262.2-.524.302-.786-.044.358-.099.713-.148 1.069a217.17 217.17 0 0 0-1.427 5.665zm-4.022 11.264a13.786 13.786 0 0 0 2.684-1.819l.262.087c.211.07.408.094.601.096.126.178.286.328.465.455-1.307.674-2.75 1.189-4.287 1.576.11-.122.206-.247.275-.395zM64.089 87.682a34.001 34.001 0 0 0-.678 2.915 36.212 36.212 0 0 0-.225-1.866c.369-.42.538-1.013.455-1.562.205.053.408.113.598.193-.052.104-.116.199-.15.32zm28.666 45.654c1.378-.09 2.758-.176 4.137-.276.002.153.009.3.038.452-.843-.049-1.65-.09-2.405-.119-.573-.024-1.17-.04-1.77-.057z"/><path d="M157.638 29.478c-9.937-12.504-23.426-22.083-38.707-26.773C103.265-2.104 85.358.113 69.884 4.57c-30.78 8.868-54.362 33.409-62.647 64.184C4.101 80.4 3.469 91.993 4.959 103.217c0 .046-.018.082-.015.131.208 2.506.667 4.871 1.283 7.15 3.116 14.228 9.681 27.725 19.104 39.785 16.278 20.834 44.301 38.432 71.439 32.057-.016 1.328 1.031 2.666 2.65 2.129 32.426-10.743 62.269-29.264 75.294-62.242 12.438-31.48 3.457-66.914-17.076-92.749zM8.635 101.764a78.196 78.196 0 0 1-.508-7.114c.033.237.068.474.104.711.135 2.218.372 4.411.655 6.587-.081-.065-.169-.122-.251-.184zm9.214-11.123c-.101.355-.204.708-.309 1.061-.029-.696-.06-1.392-.066-2.09.132-.461.261-.922.39-1.384-.015.804-.023 1.608-.015 2.413zm71.241 77.794c-1.34-.267-2.68-.532-4.02-.793 1.349.116 2.697.263 4.046.397-.027.133-.024.265-.026.396zm53.231-11.093c.76-.303 1.516-.631 2.266-.982-.623.504-1.235 1.021-1.871 1.512a2.26 2.26 0 0 0-.395-.53zM96.473 34.292c.786.034 1.568.087 2.35.147l-.007.016a108.69 108.69 0 0 0-5.137.372c.933-.169 1.863-.352 2.794-.535zm-66.53 97.855c-.399-1.356-.793-2.715-1.203-4.067a157.107 157.107 0 0 0 2.142 4.808c-.309-.248-.625-.494-.939-.741zm4.269-79.959c-.3.216-.609.42-.917.626a2.023 2.023 0 0 0-.414-.271c.69-.62 1.357-1.259 2.028-1.897a30.207 30.207 0 0 0-.697 1.542zm4.083 67.345c.015-.686.016-1.371.034-2.058.057.099.098.204.156.301.026.043.06.065.09.101a50.81 50.81 0 0 0 .608 3.357c-.3-.564-.591-1.134-.888-1.701zm10.868 13.905c-9.105-9.495-7.438-26.287-6.677-38.243.765-12.004 2.674-24.494.779-36.49.219-.587.504-1.117.779-1.656a44.417 44.417 0 0 0 3.744-4.836c8.225-7.244 23.53-7.485 33.31-7.814 13.935-.468 28.896-1.83 42.606 1.001 16.634 3.435 19.778 18.415 19.587 33.359-.197 15.465.556 31.64-3.674 46.654-5.394 19.139-25.542 18.547-42.091 18.321-8.651-.118-17.292-.829-25.898-1.668-8.403-.818-16.398-2.299-22.465-8.628zm25.835 44.554c3.753.534 7.518.984 11.293 1.379a64.237 64.237 0 0 1-11.293-1.379z"/></symbol><symbol viewBox="0 0 430.117 430.117" id="linkedin" xmlns="http://www.w3.org/2000/svg"><path d="M430.117 261.543V420.56h-92.188V272.193c0-37.271-13.334-62.707-46.703-62.707-25.473 0-40.632 17.142-47.301 33.724-2.432 5.928-3.058 14.179-3.058 22.477V420.56h-92.219s1.242-251.285 0-277.32h92.21v39.309c-.187.294-.43.611-.606.896h.606v-.896c12.251-18.869 34.13-45.824 83.102-45.824 60.673-.001 106.157 39.636 106.157 124.818zM52.183 9.558C20.635 9.558 0 30.251 0 57.463c0 26.619 20.038 47.94 50.959 47.94h.616c32.159 0 52.159-21.317 52.159-47.94-.606-27.212-20-47.905-51.551-47.905zM5.477 420.56h92.184V143.24H5.477v277.32z"/></symbol><symbol viewBox="0 0 33 33" id="message" xmlns="http://www.w3.org/2000/svg"><path d="M7.282 32.706a.5.5 0 0 1-.5-.5v-7.124C2.405 22.806 0 18.821 0 13.828 0 6.112 7.093.294 16.5.294S33 6.112 33 13.828c0 7.715-7.093 13.533-16.5 13.533-.309 0-.612-.017-.916-.033l-.02-.001-8.007 5.296a.498.498 0 0 1-.275.083zM16.5 1.294C7.664 1.294 1 6.683 1 13.828c0 3.323 1.128 7.842 6.503 10.499a.5.5 0 0 1 .278.448v6.501l7.369-4.874a.456.456 0 0 1 .302-.082l.186.01c.286.016.571.031.861.031 8.836 0 15.5-5.388 15.5-12.533S25.336 1.294 16.5 1.294z"/></symbol><symbol viewBox="0 0 367.353 367.353" id="money" xmlns="http://www.w3.org/2000/svg"><path d="M337.2 323.276H12.8v-285.6c0-3.6-2.8-6.4-6.4-6.4-3.6 0-6.4 2.8-6.4 6.4v292c0 3.6 2.8 6.4 6.4 6.4h330.8c3.6 0 6.4-2.8 6.4-6.4 0-3.6-2.8-6.4-6.4-6.4z"/><path d="M365.2 150.876c-2.8-2.4-6.8-2-9.2.8l-41.2 46.8-28-24.8c-1.6-1.2-3.2-2-5.2-1.6-2 .4-3.6 1.6-4.4 3.2l-34.4 57.6-29.6-10c-2.4-.8-5.6 0-7.2 2l-28 36.8-30.8-19.2c-2.4-1.6-5.6-1.2-7.6.8l-40.4 36.4-41.2-10.8c-2.4-.4-4.8 0-6.4 1.6l-22.4 23.6c-2.4 2.4-2.4 6.8.4 9.2 1.2 1.2 2.8 1.6 4.4 1.6 1.6 0 3.2-.8 4.8-2l19.6-20.8 40.8 10.8c2 .4 4.4 0 6-1.6l39.2-35.6 31.6 19.6c2.8 1.6 6.4 1.2 8.4-1.6l28.8-37.6 30.4 10c2.8.8 6-.4 7.6-2.8l32.8-55.6 27.2 24c1.2 1.2 3.2 1.6 4.8 1.6 1.6 0 3.2-.8 4.4-2l45.2-52c2.4-2 2.4-6-.4-8.4zm-326.8 94.4c1.2 0 2-.4 3.2-.8l58-32.4 29.2 11.6c2.4.8 5.2.4 7.2-1.6l60.4-67.6 45.2 19.6c2.4 1.2 5.2.4 7.2-1.6l51.2-53.6 24 10.4c3.2 1.6 6.8 0 8.4-3.2l29.6-64.4c1.6-3.2 0-7.2-3.2-8.4-3.2-1.6-7.2 0-8.4 3.2l-26.8 58.8-22.4-10c-2.4-1.2-5.2-.4-7.2 1.6l-51.6 53.6-45.2-19.6c-2.4-1.2-5.6-.4-7.2 1.6l-60.4 67.6-28-10.8c-1.6-.8-3.6-.4-5.6.4l-60.8 34c-3.2 1.6-4.4 5.6-2.4 8.8 1.2 1.6 3.2 2.8 5.6 2.8zm57.2-104.4c28 0 51.2-22.8 51.2-51.2 0-28-22.8-51.2-51.2-51.2-28.4 0-51.2 22.8-51.2 51.2 0 28 23.2 51.2 51.2 51.2zm0-89.6c21.2 0 38.4 17.2 38.4 38.4s-17.2 38.4-38.4 38.4-38.4-17.2-38.4-38.4 17.2-38.4 38.4-38.4z"/><path d="M83.2 113.676c.8.4 1.6.4 2.4.8s1.6.4 2.8.8c.8 0 2 .4 2.8.4h.4v6.8h8v-6.8h.4c1.2-.4 2-.8 3.2-1.2.8-.4 2-1.2 2.8-2 .8-.8 1.6-1.6 2-2.4.8-.8 1.2-1.6 1.6-2.8.4-1.2.8-2 1.2-3.2.4-1.2.4-2 .4-3.2 0-.8 0-2-.4-2.8 0-.8-.4-1.6-.8-2.8l-1.2-2.4c-.4-.8-1.2-1.2-2-2s-1.6-1.2-2.4-2c-.8-.4-1.6-1.2-2.4-1.6-.8-.4-2-.8-2.8-1.2-.8-.4-2-.8-2.8-1.2-.4 0-.8-.4-1.6-.4-.4-.4-.8-.4-1.6-.8-.4-.4-.8-.4-1.2-.8-.4-.4-.8-.8-1.2-.8-.4-.4-.4-.8-.8-1.2 0-.4-.4-.8-.4-1.6v-1.6c0-.4.4-1.2.4-1.6 0-.4.4-.8.8-1.2l1.2-1.2c.4-.4.8-.4 1.6-.8.4 0 1.2-.4 2-.4h4c.8 0 1.2.4 2 .4.4 0 .8.4 1.2.4.4 0 .8.4 1.2.4l2 .8.4-2 .8-5.6v-1.2l-1.2-.4c-.4 0-.8-.4-1.2-.4-.4 0-.8-.4-1.2-.4-.4 0-1.2-.4-1.6-.4-.8 0-1.2-.4-1.6-.4h-.8v-6.4h-8v6.8h-.4c-1.2.4-2 .8-2.8 1.2-.8.4-1.6 1.2-2.4 2s-1.6 1.6-2 2.4c-.4.8-1.2 1.6-1.6 2.8-.4 1.2-.8 2-.8 3.2-.4 1.2-.4 2.4-.4 3.6 0 .8 0 2 .4 2.8 0 .8.4 2 .8 2.8.4.8.8 1.6 1.6 2.4.4.8 1.2 1.2 2 2s1.6 1.2 2.4 1.6c.8.4 1.6 1.2 2.4 1.6s2 .8 2.8 1.2c.8.4 2 .8 2.8 1.2.4 0 .8.4 1.6.4.4.4.8.4 1.2.8.4.4.8.4 1.2.8.4.4.8.8.8 1.2.4.4.4.8.8 1.2 0 .4.4 1.2.4 1.6v1.6c0 .4-.4.8-.4 1.2-.4.4-.4.8-.8 1.2-.4.4-.8.8-1.2.8-.4.4-.8.4-1.6.8-.4 0-1.2.4-1.6.4h-4.4c-.8 0-1.2 0-2-.4-.8 0-1.6-.4-2.4-.4-.8-.4-1.6-.4-2-.8-.4 0-.8-.4-.8-.4-1.6-.8-1.6-1.2-2-1.2l-2-1.2-.4 2.4-.8 6v1.2l1.2.4c.8.4 1.2.8 2 1.2z"/></symbol><symbol viewBox="0 0 321.6 321.6" id="money-bag" xmlns="http://www.w3.org/2000/svg"><path d="M278.791 283.2c-1.2-4.8-2-17.6-2.4-29.2-2-50.8-5.6-151.6-86-170.4.8-1.2 1.2-2.4 1.2-3.6 0-3.2-2.4-6-6-6.4 13.2-12.8 25.2-33.6 30.4-60.4.8-3.2 0-6-2-8.4-3.6-4.4-10.4-4.8-16-4.8-8.4 0-20 1.6-32.4 3.2-13.6 2-28 3.6-39.2 3.6-6 0-10.4-.4-13.6-1.6-2-.8-4-.4-5.6.8-1.6 1.2-2.8 3.2-2.8 5.2 0 22.4 14 47.2 29.6 62.4-2.8.8-4.8 3.2-4.8 6 0 1.6.4 2.8 1.6 4-79.6 20-83.2 119.6-85.2 170.4-.4 11.6-.8 24.8-2.4 29.2-8 1.2-14 8-14 16.4v5.2c0 9.2 7.6 16.8 16.8 16.8h229.6c9.2 0 16.8-7.6 16.8-16.8v-5.2c.4-8-5.6-15.2-13.6-16.4zm-160.4-264c12.4 1.2 31.6-1.2 49.2-3.6 12-1.6 22.8-3.2 30.8-3.2 2.4 0 4 0 5.2.4-7.6 34-26.4 54.8-38.8 60.4h-9.2c-13.2-6-33.6-30.4-37.2-54zm161.6 286c0 2-1.6 4-4 4h-229.6c-2 0-4-1.6-4-4V300c0-2 1.6-4 4-4 11.2 0 11.6-14 12.4-41.6 2-56.4 6-161.6 102.4-161.6s100.4 105.2 102.4 161.6c1.2 27.6 1.6 41.6 12.4 41.6 2 0 4 1.6 4 4v5.2z"/><path d="M183.991 214.8c-.8-1.2-1.2-2.4-2-3.6s-2-2-2.8-3.2c-1.2-1.2-2.4-2-3.6-2.8s-2.4-1.6-4-2.4c-1.6-.8-2.8-1.6-4.4-2-1.6-.8-3.2-1.2-4.4-2-.8-.4-1.6-.4-2.4-.8l-2.4-1.2c-.8-.4-1.2-.8-2-1.2l-1.6-1.6c-.4-.8-.8-1.2-1.2-2-.4-.8-.4-1.6-.8-2.4v-2.4c0-.8.4-1.6.8-2.4.4-.8.8-1.6 1.2-2 .4-.8 1.2-1.2 2-1.6l2.4-1.2c.8-.4 2-.4 2.8-.4h3.6c.8 0 2 0 2.8.4.8 0 2 .4 2.8.4s1.6.4 2 .4c.8.4 1.6.4 2 .8l2.8.8.4-3.2 1.2-8.8.4-2-2-.8c-.8-.4-1.6-.4-2-.4-.4 0-1.2-.4-2-.4-.8-.4-1.6-.4-2.4-.4s-2-.4-2.8-.4h-.8v-10.4h-12.4v10.8l-.8.4c-1.6.4-3.2 1.2-4.8 2-1.6.8-2.8 1.6-4 2.8-1.2 1.2-2.4 2.4-3.2 3.6s-1.6 2.8-2.4 4.4c-.8 1.6-1.2 3.2-1.6 4.8-.4 1.6-.4 3.6-.4 5.6 0 1.6 0 2.8.4 4.4.4 1.6.8 2.8 1.6 4.4l2.4 3.6c.8 1.2 2 2 2.8 3.2 1.2.8 2.4 2 3.6 2.8 1.2.8 2.8 1.6 4 2.4 1.6.8 3.2 1.6 4.4 2 1.6.8 3.2 1.2 4.8 2 .8.4 1.6.4 2.4.8.8.4 1.6.8 2 1.2.8.4 1.2.8 2 1.2l1.6 1.6c.4.8.8 1.2 1.2 2s.4 1.6.4 2.4v2.4c0 .8-.4 1.6-.8 2.4-.4.8-.8 1.2-1.6 2-.4.4-1.2 1.2-2 1.6-.8.4-1.6.8-2.4.8-.8.4-1.6.4-2.4.4h-4c-.8 0-2 0-2.8-.4-.8 0-2-.4-2.8-.4-1.2-.4-2.4-.4-3.6-.8l-3.6-1.2c-.4 0-.8-.4-1.6-.8-.4-.4-.8-.4-1.6-.8l-3.2-1.6-.4 3.6-1.2 9.6-.4 2 1.6.8c1.2.4 2.4 1.2 3.6 1.6 1.2.4 2.4.8 4 1.2 1.2.4 2.8.8 4 1.2 1.6.4 2.8.4 4.4.8h.8v10.4h12V248h.8c1.6-.4 3.6-1.2 5.2-2s2.8-1.6 4.4-2.8l3.6-3.6c.8-1.2 2-2.8 2.4-4.4.8-1.6 1.2-3.2 1.6-5.2.4-1.6.4-3.6.4-5.2 0-3.2-.4-4.8-.4-6-.4-1.6-.8-2.8-1.6-4z"/></symbol><symbol viewBox="0 0 512 512" id="search" xmlns="http://www.w3.org/2000/svg"><path d="M495 466.2L377.2 348.4c29.2-35.6 46.8-81.2 46.8-130.9C424 103.5 331.5 11 217.5 11 103.4 11 11 103.5 11 217.5S103.4 424 217.5 424c49.7 0 95.2-17.5 130.8-46.7L466.1 495c8 8 20.9 8 28.9 0 8-7.9 8-20.9 0-28.8zm-277.5-83.3C126.2 382.9 52 308.7 52 217.5S126.2 52 217.5 52C308.7 52 383 126.3 383 217.5s-74.3 165.4-165.5 165.4z"/></symbol><symbol viewBox="0 0 512 512" id="skype" xmlns="http://www.w3.org/2000/svg"><path d="M487.654 288.97c1.406-10.4 2.215-20.973 2.215-31.736 0-129.153-105.27-233.872-235.102-233.872-12.904 0-25.555 1.06-37.866 3.08-22.072-14.384-48.342-22.767-76.612-22.767C62.766 3.675 0 66.483 0 143.981c0 28.198 8.299 54.394 22.59 76.389a232.862 232.862 0 0 0-2.909 36.859c0 129.176 105.217 233.882 235.085 233.882 14.657 0 28.927-1.429 42.796-3.935 21.549 13.369 46.934 21.148 74.145 21.148C449.211 508.327 512 445.503 512 368.013c-.004-29.293-8.961-56.528-24.346-79.043zM276.74 429.597c-74.705 3.894-109.664-12.637-141.689-42.691-35.765-33.565-21.398-71.854 7.74-73.801 29.122-1.942 46.607 33.015 62.15 42.736 15.524 9.688 74.594 31.76 105.793-3.908 33.977-38.828-22.594-58.92-64.06-65.002-59.203-8.766-133.95-40.792-128.135-103.907 5.816-63.074 53.582-95.414 103.85-99.976 64.077-5.817 105.792 9.707 138.786 37.86 38.148 32.529 17.508 68.894-6.799 71.82-24.213 2.909-51.404-53.504-104.792-54.352-55.027-.864-92.217 57.261-24.286 73.784 67.967 16.505 140.75 23.286 166.961 85.417 26.231 62.137-40.751 128.125-115.519 132.02z"/></symbol><symbol viewBox="0 0 612 612" id="twitter" xmlns="http://www.w3.org/2000/svg"><path d="M612 116.258a250.714 250.714 0 0 1-72.088 19.772c25.929-15.527 45.777-40.155 55.184-69.411-24.322 14.379-51.169 24.82-79.775 30.48-22.907-24.437-55.49-39.658-91.63-39.658-69.334 0-125.551 56.217-125.551 125.513 0 9.828 1.109 19.427 3.251 28.606-104.326-5.24-196.835-55.223-258.75-131.174-10.823 18.51-16.98 40.078-16.98 63.101 0 43.559 22.181 81.993 55.835 104.479a125.556 125.556 0 0 1-56.867-15.756v1.568c0 60.806 43.291 111.554 100.693 123.104-10.517 2.83-21.607 4.398-33.08 4.398-8.107 0-15.947-.803-23.634-2.333 15.985 49.907 62.336 86.199 117.253 87.194-42.947 33.654-97.099 53.655-155.916 53.655-10.134 0-20.116-.612-29.944-1.721 55.567 35.681 121.536 56.485 192.438 56.485 230.948 0 357.188-191.291 357.188-357.188l-.421-16.253c24.666-17.593 46.005-39.697 62.794-64.861z"/></symbol></svg>